<?xml version="1.0" encoding="UTF-8" standalone="no"?>
<svg
   xmlns:dc="http://purl.org/dc/elements/1.1/"
   xmlns:cc="http://creativecommons.org/ns#"
   xmlns:rdf="http://www.w3.org/1999/02/22-rdf-syntax-ns#"
   xmlns:svg="http://www.w3.org/2000/svg"
   xmlns="http://www.w3.org/2000/svg"
   width="2086.5469"
   height="640"
   viewBox="0 0 552.06551 169.33334"
   version="1.1"
   id="svg1">
  <g
     id="layer1"
     transform="translate(-3.502897e-7,-50.799999)">
    <g
       id="g1"
       style="fill:#ffffff">
      <path
         d="m 520.45458,174.86015 q 0,-8.62117 4.08554,-13.84927 4.08553,-5.26273 10.69856,-5.26273 6.57841,0 10.42158,4.50102 v -19.52749 h 6.40529 v 53.18123 h -5.88594 l -0.31161,-4.01629 q -3.84317,4.70875 -10.69856,4.70875 -6.50916,0 -10.62932,-5.33197 -4.08554,-5.33197 -4.08554,-13.91852 z m 6.40529,0.72709 q 0,6.37067 2.63136,9.97148 2.63136,3.60081 7.27087,3.60081 6.09369,0 8.89816,-5.47046 v -17.20773 q -2.87372,-5.29735 -8.82891,-5.29735 -4.70876,0 -7.34012,3.63544 -2.63136,3.63543 -2.63136,10.76781 z"
         style="stroke-width:0.264583;fill:#ffffff"
         id="path1034" />
      <path
         d="m 516.85377,162.18806 q -1.45418,-0.24236 -3.15071,-0.24236 -6.30142,0 -8.55193,5.3666 v 26.59061 h -6.40529 v -37.4623 h 6.23217 l 0.10387,4.3279 q 3.15071,-5.02036 8.93279,-5.02036 1.86965,0 2.8391,0.48472 z"
         style="stroke-width:0.264583;fill:#ffffff"
         id="path1032" />
      <path
         d="m 483.23465,193.90291 q -0.55397,-1.10794 -0.9002,-3.94704 -4.46639,4.6395 -10.66395,4.6395 -5.53971,0 -9.1059,-3.11608 -3.53156,-3.15071 -3.53156,-7.96334 0,-5.85132 4.43177,-9.07128 4.46639,-3.25458 12.53359,-3.25458 h 6.23218 v -2.94297 q 0,-3.35845 -2.00815,-5.33197 -2.00814,-2.00814 -5.92056,-2.00814 -3.4277,0 -5.74745,1.73116 -2.31976,1.73116 -2.31976,4.1894 h -6.43991 q 0,-2.80448 1.97352,-5.40122 2.00815,-2.63136 5.40122,-4.15478 3.42769,-1.52342 7.51323,-1.52342 6.47454,0 10.1446,3.25458 3.67006,3.21996 3.80855,8.89816 v 17.24235 q 0,5.15886 1.31568,8.2057 v 0.55397 z m -10.62932,-4.88187 q 3.01222,0 5.71283,-1.55804 2.70061,-1.55805 3.91242,-4.05092 v -7.68635 h -5.02037 q -11.77188,0 -11.77188,6.89002 0,3.01222 2.00814,4.70875 2.00815,1.69654 5.15886,1.69654 z"
         style="stroke-width:0.264583;fill:#ffffff"
         id="path1030" />
      <path
         d="m 417.96992,174.82553 q 0,-5.50509 2.14664,-9.90223 2.18126,-4.39715 6.02444,-6.78615 3.8778,-2.389 8.82891,-2.389 7.65173,0 12.36048,5.29735 4.74338,5.29735 4.74338,14.09164 v 0.4501 q 0,5.47046 -2.11201,9.83299 -2.0774,4.3279 -5.98982,6.75152 -3.87779,2.42362 -8.93278,2.42362 -7.6171,0 -12.36048,-5.29734 -4.70876,-5.29735 -4.70876,-14.0224 z m 6.43992,0.76171 q 0,6.23218 2.87372,10.0061 2.90835,3.77393 7.7556,3.77393 4.88187,0 7.7556,-3.80855 2.87372,-3.84317 2.87372,-10.73319 0,-6.16293 -2.94297,-9.97148 -2.90835,-3.84317 -7.7556,-3.84317 -4.74337,0 -7.65172,3.77392 -2.90835,3.77393 -2.90835,10.80244 z"
         style="stroke-width:0.264583;fill:#ffffff"
         id="path1028" />
      <path
         d="m 411.63389,175.58724 q 0,8.58655 -3.94705,13.81465 -3.94704,5.19348 -10.5947,5.19348 -7.09775,0 -10.97555,-5.02036 l -0.31161,4.3279 h -5.88594 v -53.18123 h 6.40529 v 19.83909 q 3.8778,-4.81262 10.69857,-4.81262 6.82077,0 10.69857,5.15886 3.91242,5.15885 3.91242,14.12626 z m -6.4053,-0.72709 q 0,-6.54378 -2.52749,-10.10997 -2.52749,-3.56619 -7.27087,-3.56619 -6.33604,0 -9.1059,5.88594 v 16.20366 q 2.94297,5.88594 9.17515,5.88594 4.60488,0 7.167,-3.56619 2.56211,-3.56619 2.56211,-10.73319 z"
         style="stroke-width:0.264583;fill:#ffffff"
         id="path1026" />
      <path
         d="m 347.26937,160.97625 q 4.25865,-5.2281 11.07942,-5.2281 11.87576,0 11.97963,13.39918 v 24.75558 h -6.40529 V 169.1127 q -0.0346,-4.05091 -1.86966,-5.98981 -1.8004,-1.9389 -5.64358,-1.9389 -3.11609,0 -5.47046,1.66191 -2.35438,1.66192 -3.67006,4.36253 v 26.69448 h -6.40529 v -53.18123 h 6.40529 z"
         style="stroke-width:0.264583;fill:#ffffff"
         id="path1024" />
      <path
         d="m 326.11459,183.96605 q 0,-2.59674 -1.97352,-4.01629 -1.9389,-1.45417 -6.82077,-2.49287 -4.84724,-1.03869 -7.72097,-2.49287 -2.8391,-1.45417 -4.22403,-3.46232 -1.3503,-2.00814 -1.3503,-4.778 0,-4.60488 3.87779,-7.79022 3.91243,-3.18533 9.97148,-3.18533 6.37067,0 10.31772,3.2892 3.98166,3.28921 3.98166,8.41344 h -6.43991 q 0,-2.63136 -2.25051,-4.53564 -2.21588,-1.90427 -5.60896,-1.90427 -3.49694,0 -5.47046,1.52342 -1.97352,1.52342 -1.97352,3.98166 0,2.31976 1.83503,3.49695 1.83503,1.17718 6.61303,2.2505 4.81262,1.07332 7.79022,2.56212 2.97759,1.4888 4.39714,3.60081 1.45418,2.07739 1.45418,5.08961 0,5.02037 -4.0163,8.06721 -4.01629,3.01221 -10.42158,3.01221 -4.50101,0 -7.96333,-1.59266 -3.46232,-1.59267 -5.43584,-4.43177 -1.9389,-2.87373 -1.9389,-6.19755 h 6.40529 q 0.17312,3.21995 2.56212,5.12423 2.42362,1.86965 6.37066,1.86965 3.63544,0 5.8167,-1.45417 2.21588,-1.4888 2.21588,-3.94705 z"
         style="stroke-width:0.264583;fill:#ffffff"
         id="path1022" />
      <path
         d="m 288.79079,193.90291 q -0.55397,-1.10794 -0.9002,-3.94704 -4.46639,4.6395 -10.66395,4.6395 -5.53971,0 -9.1059,-3.11608 -3.53156,-3.15071 -3.53156,-7.96334 0,-5.85132 4.43177,-9.07128 4.46639,-3.25458 12.53359,-3.25458 h 6.23218 v -2.94297 q 0,-3.35845 -2.00815,-5.33197 -2.00814,-2.00814 -5.92056,-2.00814 -3.4277,0 -5.74745,1.73116 -2.31976,1.73116 -2.31976,4.1894 h -6.43991 q 0,-2.80448 1.97352,-5.40122 2.00815,-2.63136 5.40122,-4.15478 3.4277,-1.52342 7.51323,-1.52342 6.47454,0 10.1446,3.25458 3.67006,3.21996 3.80855,8.89816 v 17.24235 q 0,5.15886 1.31568,8.2057 v 0.55397 z m -10.62932,-4.88187 q 3.01222,0 5.71283,-1.55804 2.70061,-1.55805 3.91242,-4.05092 v -7.68635 h -5.02036 q -11.77189,0 -11.77189,6.89002 0,3.01222 2.00814,4.70875 2.00815,1.69654 5.15886,1.69654 z"
         style="stroke-width:0.264583;fill:#ffffff"
         id="path1020" />
      <path
         d="m 220.133,193.90291 v -50.41137 h 14.23013 q 6.57841,0 11.63339,2.90835 5.05499,2.90835 7.79022,8.27494 2.76986,5.3666 2.80448,12.32586 v 3.21996 q 0,7.13237 -2.76985,12.49897 -2.73524,5.36659 -7.85947,8.24032 -5.08961,2.87372 -11.87576,2.94297 z m 6.64765,-44.94091 v 39.50507 h 6.99389 q 7.68634,0 11.945,-4.778 4.29327,-4.778 4.29327,-13.60692 v -2.94297 q 0,-8.58655 -4.05091,-13.32993 -4.01629,-4.778 -11.42565,-4.84725 z"
         style="stroke-width:0.264583;fill:#ffffff"
         id="path1018" />
      <path
         d="m 469.38538,92.609293 q -1.31568,-0.242362 -2.80448,-0.242362 -3.8778,0 -6.57841,2.181261 -2.66598,2.146638 -3.80855,6.266798 v 25.72503 h -4.12016 V 89.077727 h 4.05091 l 0.0693,5.95519 q 3.2892,-6.647654 10.56007,-6.647654 1.73116,0 2.73524,0.450102 z"
         style="stroke-width:0.264583;fill:#ffffff"
         id="path1016" />
      <path
         d="m 429.88031,127.23249 q -4.778,0 -8.6558,-2.35438 -3.84318,-2.35438 -5.98981,-6.54378 -2.14664,-4.22403 -2.14664,-9.45214 v -1.48879 q 0,-5.40122 2.07739,-9.72912 2.11201,-4.3279 5.85132,-6.786147 3.7393,-2.49287 8.10183,-2.49287 6.82077,0 10.80243,4.674132 4.01629,4.639508 4.01629,12.706715 v 2.31975 h -26.7291 v 0.79633 q 0,6.37067 3.63543,10.62933 3.67006,4.22403 9.20977,4.22403 3.32383,0 5.85132,-1.21182 2.56212,-1.21181 4.63951,-3.87779 l 2.59674,1.97352 q -4.57026,6.61303 -13.26068,6.61303 z M 429.1186,91.916829 q -4.67414,0 -7.89409,3.427697 -3.18534,3.427696 -3.8778,9.209774 h 22.47045 v -0.45011 q -0.17311,-5.401215 -3.08146,-8.794288 -2.90835,-3.393073 -7.6171,-3.393073 z"
         style="stroke-width:0.264583;fill:#ffffff"
         id="path1014" />
      <path
         d="m 401.93939,117.01865 q 0,-3.08147 -2.49287,-4.95112 -2.45825,-1.86965 -7.44399,-2.90835 -4.98574,-1.07332 -7.75559,-2.42362 -2.73524,-1.38493 -4.08554,-3.35845 -1.31568,-1.97353 -1.31568,-4.778004 0,-4.431769 3.70468,-7.305494 3.70468,-2.908349 9.48676,-2.908349 6.26679,0 10.04072,3.116088 3.80855,3.081464 3.80855,8.067204 h -4.15478 q 0,-3.289203 -2.76986,-5.470464 -2.73523,-2.181262 -6.92463,-2.181262 -4.08554,0 -6.57841,1.83503 -2.45825,1.800406 -2.45825,4.708754 0,2.804477 2.04277,4.362527 2.07739,1.52342 7.51323,2.80447 5.47047,1.28106 8.17108,2.73524 2.73523,1.45417 4.05091,3.49694 1.31568,2.04277 1.31568,4.95112 0,4.74337 -3.84317,7.58248 -3.80855,2.8391 -9.97148,2.8391 -6.54379,0 -10.62932,-3.15071 -4.05092,-3.18534 -4.05092,-8.03258 h 4.15479 q 0.24236,3.63543 3.04684,5.6782 2.8391,2.00815 7.47861,2.00815 4.3279,0 6.99388,-1.90428 2.66599,-1.90428 2.66599,-4.81262 z"
         style="stroke-width:0.264583;fill:#ffffff"
         id="path1012" />
      <path
         d="m 335.01276,117.91885 0.62322,3.21996 0.83095,-3.39308 9.00203,-28.668003 h 3.53157 l 8.89816,28.425643 0.96945,3.94704 0.79633,-3.63543 7.68635,-28.737253 h 4.29328 l -10.90631,37.462293 h -3.53156 l -9.62525,-29.706697 -0.4501,-2.042769 -0.4501,2.077392 -9.45214,29.672074 h -3.53156 L 322.8254,89.077727 h 4.25865 z"
         style="stroke-width:0.264583;fill:#ffffff"
         id="path1010" />
      <path
         d="m 284.01279,107.2549 q 0,-5.40121 2.07739,-9.729113 2.11202,-4.327899 5.92057,-6.7169 3.84318,-2.423624 8.69042,-2.423624 7.47861,0 12.11812,5.262726 4.63951,5.228102 4.63951,13.883901 v 0.86558 q 0,5.43584 -2.11202,9.79836 -2.07739,4.3279 -5.88594,6.68228 -3.80855,2.35438 -8.69042,2.35438 -7.44399,0 -12.11812,-5.2281 -4.63951,-5.26273 -4.63951,-13.91853 z m 4.15479,1.14257 q 0,6.7169 3.46232,11.0448 3.49694,4.29328 9.14052,4.29328 5.60896,0 9.07128,-4.29328 3.49694,-4.3279 3.49694,-11.39103 v -0.79634 q 0,-4.29327 -1.59267,-7.859461 -1.59267,-3.566189 -4.46639,-5.505088 -2.87373,-1.973522 -6.57841,-1.973522 -5.53971,0 -9.03665,4.362523 -3.49694,4.327898 -3.49694,11.356408 z"
         style="stroke-width:0.264583;fill:#ffffff"
         id="path1008" />
      <path
         d="m 280.48123,92.609293 q -1.31569,-0.242362 -2.80448,-0.242362 -3.8778,0 -6.57841,2.181261 -2.66599,2.146638 -3.80855,6.266798 v 25.72503 h -4.12016 V 89.077727 h 4.05091 l 0.0692,5.95519 q 3.2892,-6.647654 10.56007,-6.647654 1.73116,0 2.73523,0.450102 z"
         style="stroke-width:0.264583;fill:#ffffff"
         id="path1006" />
      <path
         d="M 220.65235,126.54002 V 76.128653 h 14.88797 q 8.10183,0 12.29123,3.358449 4.18941,3.323827 4.18941,9.832988 0,3.912421 -2.14664,6.820769 -2.11201,2.873725 -5.8167,4.120161 4.39715,0.96945 7.06314,4.3279 2.70061,3.35845 2.70061,7.75559 0,6.68228 -4.3279,10.45621 -4.29328,3.7393 -11.97963,3.7393 z m 4.25865,-24.23623 v 20.63542 h 12.77596 q 5.47046,0 8.6558,-2.76985 3.21995,-2.80448 3.21995,-7.7556 0,-4.67413 -3.08146,-7.37474 -3.04684,-2.73523 -8.44806,-2.73523 z m 0,-3.566191 h 11.63339 q 5.33197,-0.10387 8.24032,-2.49287 2.94297,-2.423624 2.94297,-7.028509 0,-4.847247 -3.04684,-7.132378 -3.01222,-2.319754 -9.14052,-2.319754 H 224.911 Z"
         style="stroke-width:0.264583;fill:#ffffff"
         id="path1004" />
    </g>
    <g
       id="g2">
      <path
         id="rect1"
         style="fill:#f14668;fill-opacity:1;stroke-width:3.34518;stroke-linejoin:round"
         d="M 27.898487,50.799999 H 141.43484 c 15.45576,0 27.89849,12.442702 27.89849,27.898434 V 192.23489 c 0,15.45574 -12.44273,27.89844 -27.89849,27.89844 H 27.898487 C 12.442726,220.13333 3.502897e-7,207.69063 3.502897e-7,192.23489 V 78.698433 C 3.502897e-7,63.242701 12.442726,50.799999 27.898487,50.799999 Z" />
      <path
         id="rect2"
         style="fill:#ffdb4a;fill-opacity:1;stroke-width:1.83223;stroke-linejoin:round"
         d="M 27.898234,50.799999 H 141.4351 c 15.45562,0 27.89823,11.328401 27.89823,25.400002 0,14.071601 -12.44261,25.399999 -27.89823,25.399999 H 27.898234 C 12.442612,101.6 3.502897e-7,90.271602 3.502897e-7,76.200001 3.502897e-7,62.1284 12.442612,50.799999 27.898234,50.799999 Z" />
    </g>
  </g>
</svg>
